<svg width="47" height="47" viewBox="0 0 47 47" fill="none" xmlns="http://www.w3.org/2000/svg">
<path d="M17.4076 11.8376C11.8696 17.5675 13.0781 27.0764 19.4218 31.2887C19.6308 31.4276 19.9089 31.4 20.0885 31.2246C21.424 29.9197 22.5538 28.6557 23.543 27.0482C23.6944 26.8023 23.6003 26.4831 23.3463 26.3455C22.3787 25.8213 21.4159 24.8384 20.8739 23.8001L20.8732 23.8004C20.2239 22.5075 20.0029 21.0582 20.3466 19.5615C20.347 19.5616 20.3474 19.5617 20.3477 19.5617C20.7433 17.6454 22.8005 15.8628 24.3718 14.2142C24.3685 14.2131 24.3653 14.2119 24.362 14.2108L30.2491 8.20222C32.5951 5.80773 36.4542 5.78799 38.8246 8.15841C41.219 10.5044 41.2586 14.3829 38.9126 16.7773L35.3467 20.4442C35.1817 20.6139 35.1281 20.8615 35.2054 21.0853C36.0264 23.4662 36.2283 26.8234 35.6781 29.3598C35.6627 29.4307 35.7503 29.4772 35.8011 29.4253L43.3904 21.6793C48.2386 16.7311 48.1975 8.67473 43.299 3.77628C38.3 -1.22274 30.1618 -1.18114 25.2141 3.86857L17.438 11.8051C17.4277 11.816 17.418 11.827 17.4076 11.8376Z" fill="#283044"/>
<path d="M31.5957 32.3799C31.5956 32.3801 31.5955 32.3804 31.5954 32.3807C31.6002 32.3787 31.6047 32.3767 31.6096 32.3746C33.1585 29.5424 33.4634 26.2942 32.7375 23.1277L32.7342 23.1311L32.7306 23.1296C32.0413 20.3093 30.1501 17.5088 27.5816 15.7846C27.3606 15.6362 27.0077 15.6534 26.8008 15.8207C25.4997 16.8728 24.2262 18.2218 23.3859 19.9433C23.2539 20.2135 23.3527 20.5382 23.6128 20.6892C24.588 21.2554 25.4688 22.0843 26.0585 23.1848L26.0594 23.1841C26.5189 23.9615 26.9718 25.4366 26.6785 27.0216C26.6783 27.0216 26.678 27.0216 26.6778 27.0216C26.4041 29.1229 24.2821 31.0504 22.5953 32.7873L22.5961 32.7881C21.312 34.1012 18.0478 37.4288 16.7408 38.7642C14.3948 41.1586 10.5163 41.1982 8.12187 38.8521C5.72747 36.5061 5.68789 32.6276 8.03389 30.2332L11.6103 26.5553C11.7724 26.3886 11.8275 26.1464 11.7554 25.9253C10.9613 23.4888 10.7437 20.2073 11.245 17.6738C11.259 17.6031 11.1721 17.558 11.1217 17.6095L3.64651 25.2389C-1.25139 30.2379 -1.20988 38.377 3.7389 43.3257C8.73764 48.2234 16.8347 48.1406 21.7324 43.1419C23.4339 41.2387 30.7174 34.4951 31.5957 32.3799Z" fill="#283044"/>
</svg>
