<svg width="57" height="56" viewBox="0 0 57 56" fill="none" xmlns="http://www.w3.org/2000/svg">
<path d="M28.5 0C12.7608 0 0 12.5369 0 28C0 43.4648 12.7608 56 28.5 56C44.2392 56 57 43.4648 57 28C56.9998 12.5369 44.239 0 28.5 0ZM36.4834 49.3306C36.3194 47.1396 36.1361 44.4253 36.1253 43.3264C36.0541 42.4829 35.9613 40.3374 33.8881 38.9672C42.1192 38.29 46.0361 33.8205 46.3177 27.9143C46.5529 24.5508 45.1919 21.5932 42.7748 19.2063C42.8977 16.6531 42.6964 13.6273 42.5291 12.2974C40.6731 11.7725 36.3446 14.0177 35.1351 14.9784C32.5842 14.0054 26.3411 13.6642 22.547 14.9784C19.8573 13.12 16.7954 11.972 15.1264 12.2922C13.5855 15.647 14.576 18.818 14.8769 19.1959C12.8925 20.9775 10.1245 23.1703 10.8762 27.7639C12.0821 34.4996 16.9057 38.1327 24.6719 39.0216C23.0154 39.3542 22.7356 40.5687 22.5967 41.0954C17.3812 43.2093 15.8904 39.7899 15.2312 38.8992C13.0422 36.2374 11.0774 37.0092 10.9562 37.0511C10.8386 37.093 10.7496 37.261 10.7621 37.3415C10.8725 37.9155 12.0643 38.4984 12.123 38.5455C13.7385 39.7284 14.3371 41.8652 14.7057 42.4742C17.0231 46.2175 22.4097 44.6652 22.4613 44.6968C22.4648 45.0239 22.4239 47.7786 22.3919 49.9223C12.5702 47.2867 5.3437 38.4841 5.3437 28C5.3437 15.435 15.7106 5.25014 28.4998 5.25014C41.289 5.25014 51.6561 15.435 51.6561 28C51.6561 37.8052 45.3327 46.1333 36.4834 49.3306Z" fill="#283044"/>
</svg>
