<svg width="28" height="29" viewBox="0 0 28 29" fill="none" xmlns="http://www.w3.org/2000/svg">
<g clip-path="url(#clip0)">
<path d="M26.5076 11.7474L4.23878 0.586661C2.77193 -0.149675 1.00652 0.484985 0.295521 2.00423C-0.0670137 2.77889 -0.0973355 3.67596 0.211992 4.47504L3.6908 13.4796H28C27.7441 12.7199 27.2072 12.0968 26.5076 11.7474Z" fill="#283044"/>
<path d="M3.69088 15.5175L0.212076 24.524C-0.39159 26.0964 0.349792 27.878 1.86801 28.5033C2.21175 28.6449 2.57815 28.7184 2.94806 28.7201C3.39505 28.7201 3.83627 28.6156 4.23881 28.4144L26.5076 17.2497C27.2073 16.9002 27.7442 16.277 28.0001 15.5175H3.69088Z" fill="#283044"/>
</g>
<defs>
<clipPath id="clip0">
<rect width="28" height="29" fill="white"/>
</clipPath>
</defs>
</svg>
